<?xml version="1.0" standalone="no"?>
<!DOCTYPE svg PUBLIC "-//W3C//DTD SVG 20010904//EN"
 "http://www.w3.org/TR/2001/REC-SVG-20010904/DTD/svg10.dtd">
<svg version="1.0" xmlns="http://www.w3.org/2000/svg"
 width="992.000000pt" height="992.000000pt" viewBox="0 0 992.000000 992.000000"
 preserveAspectRatio="xMidYMid meet">
<metadata>
Created by potrace 1.14, written by Peter Selinger 2001-2017
</metadata>
<g transform="translate(0.000000,992.000000) scale(0.100000,-0.100000)"
fill="#000000" stroke="none">
<path d="M4689 9536 c-2 -2 -50 -7 -106 -10 -115 -7 -146 -17 -162 -54 -9 -18
-12 -391 -11 -1441 0 -905 -3 -1412 -9 -1406 -8 8 -110 146 -188 254 -10 14
-33 44 -50 68 -18 24 -33 47 -33 52 0 5 -3 11 -7 13 -11 4 -73 85 -73 94 0 4
-7 14 -16 23 -8 9 -74 97 -145 196 -72 99 -138 190 -147 202 -9 12 -24 31 -32
43 -33 47 -112 156 -123 170 -7 8 -46 62 -87 120 -41 58 -77 107 -80 110 -3 3
-34 46 -70 95 -35 50 -68 92 -72 93 -4 2 -8 8 -8 13 0 5 -23 39 -50 74 -27 35
-50 69 -50 74 0 5 -3 11 -7 13 -13 5 -73 86 -73 97 0 5 -3 11 -7 13 -13 5 -73
86 -73 97 0 5 -3 11 -8 13 -4 2 -47 57 -94 123 -48 66 -91 125 -95 130 -5 6
-23 30 -40 55 -46 67 -69 90 -92 95 -12 2 -25 6 -29 9 -5 3 -59 -24 -120 -59
-62 -36 -116 -65 -120 -65 -5 0 -17 -9 -27 -20 -10 -11 -22 -20 -27 -20 -8 0
-89 -50 -98 -61 -3 -3 -25 -18 -50 -32 -25 -14 -54 -34 -65 -44 -11 -10 -47
-36 -79 -58 -33 -22 -64 -44 -70 -50 -6 -5 -37 -29 -68 -53 -119 -88 -133
-128 -72 -208 19 -24 34 -46 34 -49 0 -3 7 -13 15 -22 8 -10 57 -76 109 -148
52 -71 110 -151 130 -177 20 -26 36 -52 36 -58 0 -5 4 -10 9 -10 4 0 21 -19
36 -42 24 -36 127 -181 153 -213 4 -5 18 -26 32 -45 13 -19 27 -37 30 -40 4
-3 27 -34 51 -70 24 -36 46 -67 49 -70 3 -3 17 -21 30 -40 14 -19 28 -39 32
-45 4 -5 26 -33 48 -62 22 -29 40 -57 40 -63 0 -5 3 -10 8 -10 4 0 18 -17 32
-38 27 -40 83 -116 106 -145 8 -9 14 -22 14 -27 0 -6 4 -10 8 -10 4 0 21 -20
36 -44 15 -24 35 -52 44 -62 9 -11 31 -39 47 -64 17 -25 40 -56 53 -70 12 -14
22 -28 22 -32 0 -3 6 -13 13 -20 6 -7 28 -36 47 -63 19 -28 39 -55 45 -62 5
-6 20 -27 33 -45 58 -84 118 -163 124 -166 5 -2 8 -10 8 -17 0 -7 4 -15 8 -17
4 -1 39 -47 77 -101 39 -54 80 -110 92 -125 13 -15 23 -30 23 -34 0 -8 -35 -2
-53 9 -6 4 -14 8 -17 9 -3 0 -32 9 -65 19 -33 10 -60 16 -60 14 -1 -2 -13 4
-28 14 -15 9 -27 15 -27 13 0 -3 -39 9 -87 25 -49 16 -88 29 -88 29 0 -1 -13
4 -30 10 -16 7 -37 13 -45 15 -8 2 -60 18 -115 36 -55 18 -102 33 -105 34 -12
2 -57 17 -75 25 -11 4 -94 31 -185 60 -91 29 -191 61 -224 72 -32 11 -63 21
-70 23 -6 1 -18 5 -26 8 -24 9 -332 108 -349 112 -9 3 -63 20 -121 40 -58 20
-112 38 -120 40 -8 2 -62 20 -120 39 -58 20 -116 39 -129 42 -13 3 -31 9 -40
13 -9 5 -20 10 -26 10 -15 2 -47 11 -70 20 -11 5 -45 16 -75 26 -30 9 -62 19
-70 22 -8 4 -19 7 -25 8 -5 0 -17 4 -25 7 -8 4 -89 30 -180 58 -91 29 -173 56
-182 61 -27 14 -71 11 -95 -6 -17 -12 -143 -250 -143 -270 0 -2 -12 -30 -26
-62 -14 -32 -30 -67 -35 -78 -48 -108 -157 -433 -164 -489 -5 -43 16 -85 45
-90 8 -1 24 -7 35 -13 11 -6 22 -11 25 -10 3 0 46 -13 95 -28 50 -16 92 -29
95 -30 3 -1 73 -23 155 -50 83 -27 152 -49 155 -50 3 0 10 -3 15 -6 8 -5 36
-14 75 -24 17 -4 528 -171 585 -191 39 -14 79 -27 91 -29 11 -3 115 -36 230
-74 240 -79 404 -132 419 -136 6 -1 18 -5 27 -9 9 -4 22 -9 30 -10 19 -3 489
-156 513 -166 11 -5 80 -27 153 -50 74 -23 131 -44 128 -47 -3 -3 -20 -7 -38
-10 -101 -12 -168 -22 -198 -28 -14 -3 -42 -8 -64 -11 -21 -3 -48 -7 -59 -10
-12 -2 -37 -6 -57 -9 -20 -3 -47 -8 -60 -10 -14 -3 -36 -7 -50 -10 -14 -3 -34
-7 -45 -9 -11 -2 -40 -7 -65 -12 -25 -4 -47 -8 -50 -9 -3 -1 -25 -5 -50 -9
-25 -5 -54 -10 -65 -12 -177 -34 -244 -47 -265 -50 -14 -3 -47 -9 -75 -14 -81
-16 -97 -19 -139 -26 -22 -3 -43 -7 -46 -9 -3 -2 -26 -7 -50 -10 -25 -4 -54
-9 -65 -11 -11 -1 -31 -5 -45 -9 -14 -3 -41 -8 -60 -11 -19 -3 -42 -7 -50 -9
-8 -2 -28 -7 -45 -10 -16 -2 -41 -7 -55 -10 -13 -2 -42 -7 -64 -11 -22 -3 -44
-8 -49 -11 -4 -3 -29 -7 -54 -9 -25 -2 -54 -6 -64 -9 -22 -7 -53 -14 -99 -21
-19 -3 -42 -7 -51 -10 -9 -2 -32 -7 -50 -9 -19 -3 -44 -7 -57 -10 -41 -9 -62
-13 -157 -31 -11 -2 -58 -10 -105 -19 -47 -9 -96 -18 -110 -20 -21 -3 -83 -16
-100 -20 -7 -2 -102 -18 -120 -20 -36 -5 -146 -27 -160 -32 -8 -3 -25 -5 -37
-4 -12 1 -36 -11 -54 -27 -29 -26 -32 -33 -30 -83 4 -102 17 -248 27 -309 2
-14 6 -45 10 -70 3 -25 7 -56 10 -70 2 -14 7 -45 10 -70 3 -25 7 -53 10 -62 5
-17 6 -24 20 -98 9 -51 11 -59 14 -62 1 -2 3 -12 5 -23 13 -94 34 -153 63
-175 30 -25 71 -24 202 5 41 9 133 26 160 30 14 2 25 4 25 5 0 1 14 4 30 6 25
4 202 38 255 49 8 1 35 6 60 10 25 4 54 9 65 12 11 2 29 6 40 8 67 11 100 17
119 21 11 3 36 7 55 10 19 2 37 6 40 8 4 3 25 7 47 10 22 4 51 9 64 11 14 3
39 8 55 11 17 2 41 7 55 9 14 3 36 7 50 10 52 10 146 28 160 30 8 1 29 5 45 8
17 4 46 9 65 12 19 4 53 10 75 15 44 10 123 22 143 23 6 0 12 3 12 6 0 3 10 6
23 7 23 1 61 7 142 23 28 6 61 13 75 15 33 5 139 25 170 31 14 3 39 8 55 10
17 3 37 8 45 10 8 2 35 7 60 11 25 3 50 7 55 8 32 8 84 18 110 21 17 2 30 4
30 5 0 2 35 8 85 15 25 3 52 8 60 10 8 3 31 6 50 9 19 2 64 9 100 15 128 21
145 23 180 26 19 2 35 4 35 5 0 2 47 8 115 14 30 3 55 6 55 7 0 0 14 3 30 4
17 2 55 6 85 9 70 9 172 18 318 31 101 9 242 18 467 31 180 10 945 12 945 2 0
-5 8 -4 19 1 10 6 21 8 24 5 2 -3 58 -7 123 -9 172 -6 416 -22 607 -41 34 -4
85 -8 112 -10 28 -1 50 -3 50 -4 0 -3 42 -9 100 -15 88 -8 135 -13 180 -19 22
-3 58 -8 79 -10 22 -3 55 -8 75 -11 20 -3 51 -8 70 -11 19 -2 46 -6 60 -9 31
-5 85 -14 126 -20 42 -6 255 -44 285 -50 14 -4 34 -8 45 -10 11 -1 38 -6 60
-11 22 -4 50 -8 63 -8 12 -1 22 -5 22 -10 0 -4 9 -6 20 -3 11 3 20 2 20 -2 0
-4 16 -6 35 -6 19 1 35 -1 35 -5 0 -3 11 -7 25 -8 13 -1 57 -8 97 -17 40 -8
89 -17 108 -20 19 -3 69 -12 110 -21 41 -8 84 -17 95 -19 11 -2 38 -6 60 -10
22 -3 54 -8 70 -11 17 -3 46 -9 65 -14 19 -5 53 -11 75 -15 22 -3 47 -8 55
-10 8 -3 29 -7 45 -9 31 -4 130 -22 175 -32 37 -8 61 -12 100 -18 19 -3 46 -8
60 -11 14 -3 41 -8 60 -11 19 -4 44 -8 55 -11 51 -10 173 -33 200 -37 17 -3
80 -15 140 -27 102 -19 128 -24 180 -33 11 -2 36 -7 55 -10 19 -4 44 -9 55
-11 11 -2 20 -4 20 -5 0 -1 11 -3 25 -4 14 -2 55 -9 93 -16 37 -6 78 -9 92 -6
26 7 53 39 60 72 2 11 13 60 25 109 12 50 24 102 26 118 7 46 13 81 19 107 3
14 7 42 10 63 3 21 7 48 10 60 2 12 7 42 10 67 2 25 8 68 11 95 7 61 12 115
19 222 9 129 0 137 -200 172 -60 11 -119 22 -130 24 -23 5 -88 17 -125 23 -14
3 -70 13 -125 24 -55 11 -113 21 -130 24 -16 2 -30 5 -30 6 0 2 -11 4 -105 20
-36 6 -85 15 -110 21 -25 5 -58 11 -75 13 -16 2 -37 6 -45 9 -8 3 -31 8 -50
11 -57 8 -103 16 -130 22 -14 3 -36 8 -50 10 -14 3 -47 9 -75 14 -27 5 -61 11
-75 14 -31 5 -98 17 -125 23 -11 2 -42 8 -70 14 -27 5 -67 12 -88 15 -43 7
-52 8 -87 17 -14 4 -38 9 -55 11 -35 6 -126 22 -170 31 -16 4 -39 8 -50 9 -11
2 -31 6 -45 9 -14 4 -43 9 -65 13 -79 12 -100 16 -116 25 -9 4 -19 6 -21 3 -3
-2 -25 0 -49 5 -24 5 -61 12 -83 15 -21 4 -42 8 -46 11 -6 4 -107 17 -137 18
-7 0 -13 3 -13 7 0 3 -17 7 -39 8 -21 2 -49 5 -62 8 -13 2 -42 7 -64 10 -22 3
-51 8 -65 10 -14 3 -46 8 -73 13 -26 4 -50 9 -52 10 -3 0 -13 1 -22 1 -24 0
-10 10 23 16 15 3 32 8 38 12 6 3 16 7 23 8 6 1 103 32 215 69 112 37 208 68
213 70 6 1 17 5 25 8 20 7 214 71 220 72 13 2 218 67 240 77 47 19 175 58 193
58 9 0 17 4 17 8 0 5 6 9 13 9 7 0 64 17 127 37 110 37 126 42 142 45 4 1 28
10 53 21 25 11 45 17 45 15 0 -2 16 3 35 11 19 8 38 15 42 15 10 2 17 4 68 20
22 7 42 14 45 14 3 1 12 4 20 8 8 3 47 15 85 27 39 12 77 24 85 27 8 3 20 7
25 8 23 6 182 57 200 65 11 5 38 14 60 20 22 6 47 14 55 17 8 4 17 7 20 8 3 1
25 8 50 15 25 7 47 14 50 15 3 1 12 4 20 8 18 7 153 51 160 52 27 5 210 70
227 81 40 25 39 73 -1 202 -35 109 -69 206 -97 277 -7 17 -13 32 -14 35 -18
55 -110 265 -117 268 -5 2 -8 8 -8 14 0 5 -16 43 -36 83 -37 78 -72 115 -108
115 -17 0 -139 -36 -196 -57 -8 -3 -19 -7 -25 -8 -5 -2 -62 -20 -125 -41 -63
-21 -119 -39 -125 -40 -5 -1 -73 -23 -150 -49 -77 -26 -147 -49 -155 -50 -8
-2 -62 -20 -120 -40 -58 -20 -112 -38 -122 -40 -9 -2 -94 -29 -190 -61 -95
-31 -179 -57 -185 -57 -7 0 -13 -5 -13 -10 0 -6 -3 -8 -6 -5 -3 4 -45 -7 -92
-24 -48 -16 -94 -31 -102 -33 -8 -2 -28 -9 -45 -15 -16 -6 -37 -13 -45 -15 -8
-2 -64 -19 -125 -40 -60 -20 -117 -38 -125 -40 -8 -2 -15 -4 -15 -5 0 -1 -11
-3 -24 -6 -14 -2 -29 -8 -35 -13 -9 -7 -36 -16 -81 -27 -21 -5 -301 -96 -330
-107 -16 -7 -32 -12 -35 -12 -3 -1 -36 -11 -75 -24 -38 -13 -74 -24 -80 -25
-5 -1 -41 -13 -80 -26 -38 -13 -72 -24 -75 -25 -3 0 -11 -4 -17 -8 -7 -5 -13
-6 -13 -3 0 3 -16 -2 -34 -9 -20 -9 -37 -11 -41 -6 -3 5 -1 12 4 15 5 3 91
120 192 258 101 139 188 258 194 265 5 7 16 19 23 27 6 8 12 19 12 24 0 4 8
17 18 28 15 17 172 229 212 287 13 19 125 172 148 202 4 6 16 23 26 40 11 16
23 34 28 40 5 5 20 24 33 40 14 17 25 35 25 41 0 7 7 14 15 18 8 3 15 12 15
21 0 8 4 15 8 15 4 0 21 20 36 45 16 25 33 45 37 45 5 0 9 5 9 10 0 6 5 16 10
23 6 7 65 86 130 177 65 91 123 170 127 175 5 6 62 84 127 175 65 91 123 167
127 168 5 2 9 8 9 13 0 8 43 69 84 120 7 8 24 35 38 58 42 70 28 97 -97 191
-25 19 -69 53 -98 75 -29 22 -60 45 -69 50 -8 6 -74 49 -144 97 -71 47 -160
103 -197 125 -38 21 -94 53 -125 70 -31 18 -65 31 -74 29 -10 -2 -18 0 -18 6
0 15 -59 -25 -66 -44 -3 -10 -9 -18 -14 -18 -4 0 -22 -22 -39 -49 -17 -26 -43
-61 -56 -77 -14 -16 -25 -32 -25 -36 0 -5 -9 -18 -19 -30 -11 -13 -67 -88
-125 -168 -58 -80 -109 -149 -113 -155 -4 -5 -15 -21 -24 -35 -9 -14 -26 -36
-38 -49 -11 -13 -21 -28 -21 -32 0 -4 -11 -21 -25 -36 -41 -47 -45 -52 -45
-61 0 -5 -16 -27 -35 -48 -19 -21 -35 -42 -35 -46 0 -4 -7 -16 -16 -25 -31
-34 -434 -595 -434 -604 0 -5 -3 -9 -7 -9 -5 0 -19 -17 -33 -37 -14 -21 -51
-72 -82 -114 -32 -42 -58 -80 -58 -84 0 -4 -6 -13 -13 -19 -12 -9 -140 -184
-316 -431 -39 -55 -42 -59 -71 -94 -11 -13 -20 -29 -20 -34 0 -6 -3 -7 -7 -3
-5 4 -9 636 -9 1404 -1 769 -2 1406 -3 1418 -2 47 -47 72 -141 80 -61 6 -647
14 -651 10z"/>
<path d="M4819 3626 c-2 -2 -33 -6 -69 -9 -36 -4 -76 -9 -90 -12 -38 -8 -94
-18 -107 -18 -7 0 -13 -4 -13 -9 0 -5 -4 -7 -8 -4 -9 6 -136 -31 -232 -67 -75
-28 -236 -106 -295 -143 -22 -14 -48 -27 -57 -31 -10 -3 -18 -9 -18 -14 0 -5
-10 -14 -22 -19 -24 -9 -98 -64 -183 -135 -47 -39 -2115 -2105 -2107 -2105 2
0 -4 -7 -12 -16 -21 -21 -21 -93 1 -124 10 -14 31 -38 48 -55 63 -61 303 -261
334 -279 9 -5 18 -12 21 -16 3 -3 26 -21 53 -40 26 -18 47 -37 47 -42 0 -4 3
-7 8 -6 4 2 37 -18 73 -44 98 -71 138 -79 192 -43 12 8 457 450 988 982 849
851 1021 1021 1064 1051 71 50 196 113 225 114 3 0 11 4 18 10 6 6 12 8 12 4
0 -3 11 -1 25 4 87 33 237 43 358 24 142 -23 284 -82 397 -167 30 -22 501
-488 1047 -1034 546 -546 1002 -997 1015 -1002 56 -21 112 8 318 163 88 66
245 193 286 231 6 5 43 39 83 74 79 71 96 107 80 166 -8 28 -221 247 -1047
1073 -985 986 -1145 1142 -1171 1142 -6 0 -11 4 -11 8 0 22 -382 244 -446 259
-5 2 -55 18 -112 38 -99 33 -132 43 -179 50 -11 2 -29 6 -40 9 -19 6 -51 11
-153 25 -62 8 -314 14 -321 7z"/>
</g>
</svg>
