<?xml version="1.0" standalone="no"?>
<!DOCTYPE svg PUBLIC "-//W3C//DTD SVG 20010904//EN"
 "http://www.w3.org/TR/2001/REC-SVG-20010904/DTD/svg10.dtd">
<svg version="1.0" xmlns="http://www.w3.org/2000/svg"
 width="750.000000pt" height="750.000000pt" viewBox="0 0 750.000000 750.000000"
 preserveAspectRatio="xMidYMid meet">

<g transform="translate(0.000000,950.000000) scale(0.100000,-0.100000)"
fill="#000000" stroke="none">
<path d="M4988 7786 c-98 -18 -194 -50 -282 -93 -73 -37 -241 -142 -235 -147
9 -7 189 -80 264 -105 202 -70 432 -225 609 -412 105 -111 128 -142 256 -349
153 -246 259 -366 410 -465 167 -108 326 -158 593 -186 98 -10 117 -15 117
-29 0 -18 -91 -103 -232 -214 -98 -79 -344 -220 -431 -248 -68 -21 -274 -25
-373 -7 -209 38 -413 188 -577 423 -127 183 -235 322 -288 371 -60 57 -207
151 -315 202 -137 65 -326 87 -539 63 -162 -19 -330 -88 -580 -240 -66 -40
-165 -99 -220 -131 -54 -33 -105 -69 -111 -81 -6 -13 -15 -79 -19 -146 l-7
-124 23 13 c13 7 74 40 134 74 61 34 137 77 170 95 60 33 210 124 275 166 64
42 194 104 260 125 53 17 90 21 198 21 149 -1 233 -19 356 -76 127 -59 282
-198 355 -320 91 -150 363 -436 498 -522 175 -113 451 -185 648 -171 75 5 246
58 305 93 19 12 93 52 165 89 71 37 136 77 144 89 16 22 120 137 217 239 31
31 64 57 74 57 10 0 20 8 23 19 5 21 169 136 260 181 95 48 93 45 73 142 -34
162 -66 268 -102 340 -109 217 -283 415 -454 515 -19 11 -111 66 -205 123 -93
57 -246 148 -340 203 -93 55 -183 110 -200 122 -16 12 -66 42 -110 65 -44 24
-110 63 -147 87 -101 65 -224 121 -303 138 -104 22 -266 27 -357 11z"/>
<path d="M3907 6094 c-31 -7 -72 -21 -90 -30 -64 -33 -284 -158 -357 -205 -41
-26 -118 -72 -172 -102 -53 -30 -125 -77 -161 -103 -35 -27 -71 -53 -80 -59
-12 -8 -17 -38 -22 -138 l-7 -128 43 17 c24 9 88 46 141 81 88 59 138 88 348
201 36 19 73 42 83 51 21 17 143 87 235 132 120 60 313 62 438 5 85 -39 206
-167 181 -192 -4 -4 -31 0 -60 9 -163 51 -351 61 -514 28 -111 -23 -189 -57
-263 -115 -30 -24 -75 -53 -100 -66 -25 -12 -65 -40 -90 -62 -25 -22 -97 -74
-160 -115 -63 -42 -135 -95 -160 -117 -25 -23 -60 -51 -77 -61 -32 -19 -33
-21 -33 -90 0 -107 77 -421 129 -523 79 -155 265 -379 396 -477 60 -45 228
-150 515 -323 41 -25 102 -62 135 -82 536 -333 587 -360 721 -386 135 -27 325
-23 430 8 76 23 225 102 431 229 204 126 448 273 578 347 244 139 368 227 475
339 92 96 112 123 192 263 121 209 161 390 174 779 l7 213 -34 -7 c-55 -12
-155 -67 -307 -168 -79 -53 -193 -122 -255 -153 -62 -31 -150 -83 -197 -114
-193 -130 -262 -172 -410 -245 -139 -69 -162 -78 -225 -82 -118 -9 -204 28
-191 81 4 17 -3 44 -25 86 -16 33 -34 60 -38 60 -5 0 -11 8 -13 18 -3 12 -26
24 -65 36 -80 24 -185 103 -229 172 -19 29 -34 56 -34 59 0 14 -85 125 -100
130 -25 8 -191 175 -225 225 -222 335 -428 524 -622 575 -72 19 -257 18 -336
-1z m603 -704 c18 -12 2 -12 -25 0 -13 6 -15 9 -5 9 8 0 22 -4 30 -9z m335
-365 c123 -158 115 -145 66 -100 -23 22 -56 60 -73 85 -17 25 -39 51 -48 57
-10 7 -30 34 -44 60 l-26 48 35 -40 c20 -22 60 -71 90 -110z m2289 59 c3 -8 2
-12 -4 -9 -6 3 -10 10 -10 16 0 14 7 11 14 -7z m-1841 -494 c5 0 8 -3 4 -6 -9
-9 -67 29 -102 67 -23 25 -16 21 28 -14 33 -26 64 -47 70 -47z"/>
<path d="M7074 5847 c-110 -66 -341 -220 -410 -275 -43 -34 -51 -45 -47 -66 3
-14 2 -34 -2 -43 -4 -10 -9 -39 -11 -65 l-4 -47 27 8 c16 5 83 36 151 70 68
34 146 71 175 81 29 11 79 41 112 66 33 25 82 57 109 70 47 25 48 26 42 62 -3
20 -6 72 -6 115 0 74 -1 77 -23 77 -13 0 -63 -24 -113 -53z"/>
</g>
</svg>
