<?xml version="1.0" standalone="no"?>
<!DOCTYPE svg PUBLIC "-//W3C//DTD SVG 20010904//EN"
 "http://www.w3.org/TR/2001/REC-SVG-20010904/DTD/svg10.dtd">
<svg version="1.0" xmlns="http://www.w3.org/2000/svg"
 width="1563.000000pt" height="1563.000000pt" viewBox="0 0 1563.000000 1563.000000"
 preserveAspectRatio="xMidYMid meet">

<g transform="translate(0.000000,1563.000000) scale(0.100000,-0.100000)"
fill="#000000" stroke="none">
<path d="M0 7815 l0 -7815 7815 0 7815 0 0 7815 0 7815 -7815 0 -7815 0 0
-7815z m5397 2818 c0 -6 -3 -10 -7 -8 -4 2 -7 -2 -7 -10 0 -8 4 -12 9 -9 4 3
8 -2 8 -11 0 -9 -4 -14 -8 -11 -4 2 -8 -6 -8 -19 0 -13 4 -21 8 -19 4 3 8 -2
8 -11 0 -9 -4 -14 -8 -11 -4 2 -8 -11 -8 -29 0 -18 4 -31 8 -29 4 3 8 -2 8
-11 0 -9 -4 -14 -8 -11 -4 2 -8 -11 -8 -29 0 -18 4 -31 8 -29 4 3 8 -2 8 -11
0 -9 -4 -14 -8 -11 -4 2 -8 -11 -8 -29 0 -18 4 -31 8 -29 4 3 8 -2 8 -11 0 -9
-4 -14 -8 -11 -4 2 -8 -11 -8 -29 0 -18 4 -31 8 -29 4 3 8 -2 8 -11 0 -10 -5
-13 -12 -9 -7 5 -8 3 -2 -7 11 -18 14 -40 6 -36 -4 2 -15 7 -25 10 -12 5 -15
11 -10 19 11 18 10 439 -1 445 -5 4 -6 2 -3 -4 3 -5 0 -10 -8 -10 -10 0 -12 4
-5 12 12 15 57 14 57 -2z m86 1 c-1 -6 5 -11 12 -11 11 0 12 4 4 14 -10 11
207 13 1293 13 1413 0 1345 2 1452 -52 52 -27 139 -110 170 -162 57 -98 74
-244 42 -351 -9 -27 -16 -53 -16 -57 0 -5 19 -8 43 -8 l44 0 313 -887 c173
-489 316 -894 318 -901 3 -10 -34 -12 -179 -10 l-183 3 -75 228 -76 227 -309
-2 -309 -3 -76 -225 -76 -225 -177 -3 c-98 -1 -178 -4 -178 -6 0 -1 7 -17 16
-35 16 -32 39 -49 76 -56 11 -3 26 -12 33 -21 13 -18 50 -29 39 -12 -3 5 2 8
12 7 11 -2 25 0 33 5 11 7 12 6 6 -5 -8 -12 -6 -12 8 0 10 8 20 11 24 8 3 -4
-26 -99 -65 -212 l-70 -205 99 0 100 0 -3 -652 c-4 -647 -4 -654 -27 -728 -35
-116 -77 -187 -161 -270 -81 -82 -154 -124 -270 -157 -51 -14 -100 -18 -225
-18 -152 1 -164 2 -245 31 -156 55 -268 152 -335 287 -71 147 -69 121 -73 835
-1 353 -6 642 -10 643 -4 0 -15 2 -25 4 -9 2 -15 -1 -11 -6 3 -5 10 -6 16 -3
6 4 8 3 5 -3 -8 -13 -63 -11 -60 3 1 6 -5 11 -12 11 -11 0 -12 -4 -4 -13 7 -8
6 -14 -2 -20 -7 -4 -9 -3 -6 3 4 6 0 13 -8 17 -8 3 -15 2 -15 -2 0 -5 -11 -8
-25 -8 -20 0 -22 2 -12 15 8 10 8 13 1 8 -7 -4 -14 0 -17 8 -4 9 -17 13 -41
11 -20 -2 -33 0 -30 5 3 5 9 7 14 4 5 -3 11 -1 14 3 3 5 -7 8 -22 7 -38 -3
-56 13 -40 33 8 10 8 13 2 9 -7 -4 -17 0 -24 8 -10 12 -8 13 10 10 18 -4 20
-2 9 11 -6 8 -14 12 -17 10 -2 -3 -11 1 -18 9 -8 8 -23 12 -34 10 -11 -2 -18
0 -16 4 7 11 -41 33 -78 37 -16 1 -34 8 -40 15 -8 9 -7 10 4 4 12 -6 12 -5 3
5 -6 7 -31 14 -55 15 -23 2 -49 4 -56 4 -8 1 -10 6 -6 14 5 8 2 8 -9 -2 -9 -7
-17 -12 -18 -10 -7 34 -6 37 12 34 11 -2 17 0 13 6 -3 5 -25 9 -48 8 -36 -2
-42 -6 -38 -21 2 -10 7 -16 11 -14 4 3 13 0 21 -6 12 -8 12 -9 -2 -4 -10 3
-20 2 -22 -3 -3 -4 -19 -6 -36 -3 l-31 4 21 23 c26 28 21 31 -52 30 l-58 -1
30 31 c17 17 30 34 30 38 0 4 9 17 20 29 14 15 17 25 9 34 -12 14 -3 21 35 28
22 4 25 2 16 -9 -9 -11 -7 -13 7 -11 10 2 30 -3 45 -11 15 -7 31 -14 35 -16 5
-1 7 -6 5 -10 -1 -5 2 -6 7 -3 18 12 38 -22 36 -62 -1 -25 3 -39 10 -39 14 0
14 15 1 36 -5 8 -5 12 0 9 21 -11 50 -21 65 -22 9 -1 26 -10 38 -20 12 -11 21
-16 21 -11 0 4 7 2 15 -5 18 -15 49 -5 39 12 -4 7 2 5 13 -5 11 -9 22 -15 24
-12 3 2 5 -5 6 -15 1 -11 -4 -20 -10 -20 -7 0 -6 -4 3 -10 20 -13 39 -12 20 1
-12 8 -9 10 13 6 22 -3 25 -2 16 9 -6 8 -16 11 -22 7 -6 -3 -7 -1 -3 6 5 8 12
9 19 3 7 -5 24 -9 39 -8 18 1 24 -2 18 -9 -6 -8 2 -11 28 -10 20 0 43 -4 51
-10 11 -7 13 -7 8 1 -4 8 5 11 31 9 20 -1 36 -6 35 -12 -1 -5 11 -7 28 -5 16
2 26 8 23 13 -3 5 6 5 19 0 17 -7 29 -6 37 2 10 9 11 9 6 0 -3 -6 -2 -15 4
-18 6 -4 9 -1 8 7 -2 9 9 13 37 14 22 1 56 5 75 9 19 5 47 9 61 9 14 1 32 6
40 12 8 6 22 10 31 9 10 -2 17 0 17 3 -3 20 2 32 11 27 6 -3 16 -3 23 2 6 4
14 8 17 9 29 5 60 26 54 36 -4 6 -3 8 4 4 6 -3 13 -2 17 3 3 6 12 8 20 4 9 -3
21 0 29 6 7 6 15 9 17 8 2 -2 15 8 29 22 14 13 19 20 11 16 -10 -6 -12 -4 -7
4 5 8 12 9 19 2 14 -11 45 11 72 52 10 15 24 26 31 23 7 -3 18 2 24 10 7 8 9
14 4 14 -5 0 18 27 51 60 32 32 61 57 65 55 8 -5 56 47 53 57 -2 4 6 5 17 3
12 -2 18 0 15 5 -3 5 -1 11 5 15 5 3 10 1 10 -4 0 -6 5 -11 11 -11 5 0 8 4 5
8 -3 5 1 9 9 9 8 0 12 -4 9 -8 -2 -4 2 -11 10 -16 8 -4 16 -15 18 -23 2 -8 11
-23 20 -34 10 -10 14 -24 11 -30 -3 -6 -3 -8 2 -4 4 4 14 3 21 -3 16 -13 -8
-76 210 540 333 941 374 1058 374 1066 0 4 -7 2 -15 -5 -8 -7 -13 -16 -10 -20
3 -4 -2 -11 -11 -14 -8 -3 -22 -20 -30 -38 -8 -18 -28 -55 -44 -83 -15 -27
-29 -57 -29 -67 -1 -9 -6 -18 -12 -20 -6 -2 -12 -18 -12 -35 -1 -17 -4 -30 -6
-27 -2 2 -15 -26 -28 -63 -32 -91 -46 -122 -54 -118 -3 3 -6 -5 -5 -18 1 -14
-4 -21 -13 -19 -12 3 -12 0 -2 -12 9 -11 9 -16 0 -22 -8 -5 -9 -3 -4 6 5 8 4
11 -3 7 -5 -4 -8 -17 -4 -29 4 -16 2 -19 -9 -13 -12 7 -12 6 -1 -7 9 -11 10
-18 2 -23 -5 -3 -10 -15 -10 -25 0 -11 -9 -35 -20 -55 -11 -19 -17 -35 -13
-35 3 0 -1 -8 -10 -17 -8 -10 -17 -27 -19 -38 -5 -32 -35 -80 -47 -77 -6 1
-12 -5 -12 -13 -2 -24 -4 -29 -13 -44 -7 -10 -6 -12 4 -6 10 6 11 4 4 -6 -4
-8 -10 -21 -11 -30 -5 -33 -29 -66 -46 -63 -9 1 -17 -4 -17 -12 0 -9 -4 -13
-9 -10 -5 3 -15 -2 -22 -11 -10 -12 -10 -14 -1 -9 6 4 12 2 12 -3 0 -6 -4 -11
-10 -11 -5 0 -10 -6 -10 -14 0 -17 -35 -27 -47 -15 -6 6 -10 4 -10 -5 0 -9 8
-13 20 -10 16 3 18 1 9 -8 -8 -8 -8 -15 -1 -24 7 -9 6 -12 -5 -10 -9 1 -19 5
-23 10 -10 10 -11 96 -1 90 5 -3 6 -9 4 -13 -3 -4 1 -8 9 -8 9 0 4 11 -13 33
-16 20 -27 48 -29 71 -4 56 -8 82 -16 89 -9 10 -9 36 1 31 4 -3 7 14 7 38 0
24 -3 41 -7 38 -5 -2 -8 107 -8 242 0 146 -4 244 -9 241 -10 -7 -9 20 2 30 4
4 2 13 -4 20 -7 8 -7 14 1 19 6 3 7 12 3 18 -4 6 -8 31 -9 55 -3 43 -64 180
-104 232 -19 25 -19 19 -20 -542 0 -591 -3 -638 -45 -763 -47 -139 -175 -285
-305 -347 -125 -60 -192 -73 -380 -73 -141 0 -176 3 -243 23 -228 66 -370 204
-448 437 l-24 70 -3 648 -3 647 185 0 185 0 3 -622 3 -623 26 -55 c37 -80 72
-115 147 -152 63 -31 73 -33 172 -32 84 0 116 4 160 22 91 37 150 103 181 203
18 57 19 98 19 626 0 520 -1 565 -16 559 -15 -6 -15 -4 -3 11 7 10 0 6 -17
-10 -17 -15 -33 -25 -37 -22 -4 3 -5 2 -2 -1 2 -4 -7 -20 -20 -36 -14 -16 -25
-34 -25 -39 0 -6 -4 -8 -8 -5 -5 3 -9 -1 -9 -9 0 -8 5 -11 11 -8 6 4 5 -1 -3
-10 -7 -9 -10 -17 -6 -17 4 0 2 -7 -5 -15 -7 -8 -9 -15 -5 -15 4 0 2 -7 -5
-15 -7 -8 -10 -21 -7 -29 3 -8 3 -17 -1 -21 -8 -7 -12 -38 -19 -127 -2 -38 -9
-68 -14 -68 -6 0 -8 -4 -4 -9 3 -5 1 -13 -5 -16 -8 -5 -8 -11 0 -20 8 -10 8
-15 0 -20 -8 -5 -8 -10 0 -20 8 -10 8 -15 0 -20 -8 -5 -8 -10 0 -20 8 -10 8
-15 0 -20 -8 -5 -8 -10 0 -20 8 -10 8 -15 0 -20 -8 -5 -8 -10 0 -20 8 -10 8
-15 0 -20 -8 -5 -8 -10 0 -20 8 -10 8 -15 0 -20 -8 -5 -8 -10 0 -20 8 -10 8
-15 0 -20 -8 -5 -8 -10 0 -20 8 -10 8 -15 0 -20 -8 -5 -8 -10 0 -20 8 -10 8
-15 0 -20 -8 -5 -8 -10 0 -20 8 -10 8 -15 0 -20 -8 -5 -8 -10 0 -20 8 -10 8
-15 0 -20 -8 -5 -8 -10 0 -20 8 -10 8 -15 0 -20 -8 -5 -8 -10 0 -20 8 -10 8
-15 0 -20 -8 -5 -8 -11 1 -21 10 -12 6 -18 -12 -16 -3 1 -6 -5 -6 -13 0 -8 4
-12 9 -9 4 3 8 -2 8 -11 0 -10 -5 -13 -12 -9 -7 5 -8 3 -2 -7 12 -20 14 -40 3
-33 -5 3 -6 11 -2 17 4 8 1 7 -9 -1 -17 -13 -18 -36 -3 -49 4 -4 5 -2 0 6 -5
10 -4 12 4 7 6 -4 9 -12 5 -17 -3 -5 -10 -7 -15 -4 -5 4 -9 0 -9 -8 0 -7 -12
-24 -27 -38 -14 -13 -23 -18 -18 -10 6 11 2 12 -21 6 -46 -13 -84 -9 -102 11
-16 17 -16 17 3 4 11 -8 5 1 -12 19 -18 18 -33 40 -33 48 0 9 -5 11 -12 7 -10
-6 -10 -4 0 8 10 13 10 18 1 24 -8 5 -9 3 -4 -7 7 -11 6 -12 -7 -2 -8 7 -14
25 -12 40 1 16 3 28 4 28 1 0 3 8 5 18 2 9 -1 15 -6 11 -5 -3 -9 100 -9 253 0
142 -5 314 -11 383 -6 69 -11 135 -12 148 -1 12 -5 22 -9 22 -4 0 -8 5 -8 11
0 5 4 8 8 5 5 -3 9 1 9 9 0 8 -3 13 -6 12 -3 -1 -6 3 -6 8 0 6 4 9 9 7 5 -2 4
4 -4 12 -15 19 -24 21 -14 4 4 -7 3 -10 -1 -5 -5 4 -10 17 -12 29 -2 12 -14
33 -26 47 -12 13 -15 21 -7 16 8 -5 4 4 -10 20 -14 16 -18 24 -11 20 8 -5 4 7
-9 26 -41 57 -62 78 -74 73 -6 -2 -20 3 -31 12 -11 8 -14 12 -6 8 9 -5 12 -3
7 5 -4 6 -11 9 -16 6 -5 -3 -11 -1 -14 4 -3 5 -19 7 -36 6 -16 -1 -27 1 -24 6
3 5 -8 12 -25 15 -17 4 -29 10 -26 14 3 4 -2 13 -10 20 -12 10 -13 8 -10 -9 3
-17 -1 -21 -20 -21 -13 0 -27 5 -31 12 -4 6 -3 8 3 5 5 -3 10 0 10 7 0 9 -9
13 -25 10 -13 -3 -30 0 -38 7 -11 9 -15 7 -21 -7 -5 -11 -18 -19 -30 -20 -17
0 -20 2 -12 12 9 11 4 11 -23 3 -18 -6 -39 -11 -45 -12 -7 0 -13 -7 -13 -15 0
-9 -3 -13 -6 -9 -4 3 -19 0 -34 -8 -26 -13 -28 -13 -25 3 2 9 4 17 5 17 1 0 3
8 5 17 2 11 -2 15 -11 11 -13 -5 -18 -17 -15 -36 1 -5 -3 -6 -8 -3 -5 4 -12 2
-16 -4 -4 -6 -10 -8 -14 -5 -5 2 -20 -9 -35 -26 -15 -16 -32 -27 -38 -23 -6 4
-8 3 -4 -4 6 -11 -28 -87 -44 -97 -5 -3 -12 0 -17 7 -10 17 -11 118 -1 112 5
-3 6 -9 4 -13 -3 -4 1 -8 8 -8 7 0 13 6 13 13 0 7 -3 12 -6 11 -3 -1 -7 3 -7
8 -1 6 1 9 5 8 4 -1 8 5 8 13 0 11 -4 11 -21 -3 -27 -23 -36 -35 -30 -44 2 -4
-3 -12 -11 -19 -17 -14 -10 -34 8 -23 7 3 3 -3 -7 -15 -18 -20 -15 -27 8 -23
5 1 4 -5 -4 -13 -15 -19 -21 -20 -17 -3 1 6 -3 11 -8 10 -6 -1 -11 14 -11 32
0 18 3 33 7 32 4 -1 7 3 7 8 0 6 -4 9 -8 8 -10 -3 -7 24 5 34 4 4 5 2 0 -6 -6
-10 -4 -12 5 -6 9 6 11 4 5 -5 -5 -9 -4 -11 4 -6 9 6 9 11 0 22 -6 8 -14 12
-17 9 -3 -3 -16 2 -29 10 -13 9 -27 14 -31 11 -10 -6 -9 115 1 131 4 6 3 14
-1 17 -10 6 -10 46 1 63 4 6 3 14 -1 17 -10 6 -10 46 1 63 4 6 3 14 -1 17 -7
4 -9 61 -2 61 1 0 3 8 5 18 2 9 0 15 -4 13 -3 -2 -6 24 -6 58 l0 62 35 0 c19
-1 34 -6 33 -12z m-126 -37 c0 -8 -6 -14 -14 -14 -9 0 -10 4 -2 14 6 7 12 13
14 13 1 0 2 -6 2 -13z m-1 -50 c0 -13 -5 -24 -12 -24 -13 0 -13 15 -1 35 11
17 13 15 13 -11z m1 -50 c0 -8 -6 -14 -14 -14 -9 0 -10 4 -2 14 6 7 12 13 14
13 1 0 2 -6 2 -13z m0 -40 c0 -8 -6 -14 -14 -14 -9 0 -10 4 -2 14 6 7 12 13
14 13 1 0 2 -6 2 -13z m0 -40 c0 -8 -6 -14 -14 -14 -9 0 -10 4 -2 14 6 7 12
13 14 13 1 0 2 -6 2 -13z m0 -40 c0 -8 -6 -14 -14 -14 -9 0 -10 4 -2 14 6 7
12 13 14 13 1 0 2 -6 2 -13z m0 -40 c0 -8 -6 -14 -14 -14 -9 0 -10 4 -2 14 6
7 12 13 14 13 1 0 2 -6 2 -13z m0 -40 c0 -8 -6 -14 -14 -14 -9 0 -10 4 -2 14
6 7 12 13 14 13 1 0 2 -6 2 -13z m0 -40 c0 -8 -6 -14 -14 -14 -9 0 -10 4 -2
14 6 7 12 13 14 13 1 0 2 -6 2 -13z m0 -40 c0 -8 -6 -14 -14 -14 -9 0 -10 4
-2 14 6 7 12 13 14 13 1 0 2 -6 2 -13z m348 -127 c-8 -9 -13 -19 -10 -22 3 -3
-1 -10 -8 -17 -12 -9 -14 -7 -13 11 1 15 -4 22 -13 20 -11 -2 -12 0 -3 10 6 8
22 14 36 14 23 0 24 -2 11 -16z m-981 -40 c403 -39 703 -292 807 -680 20 -72
23 -110 23 -250 0 -199 -16 -270 -98 -432 l-54 -107 87 -80 86 -79 -60 -64
c-33 -35 -84 -89 -113 -121 l-54 -58 -91 84 -92 84 -90 -48 c-49 -26 -130 -60
-180 -75 -84 -26 -103 -28 -270 -28 -156 -1 -191 2 -261 21 -323 89 -561 328
-645 648 -27 104 -37 315 -19 422 65 405 382 709 795 762 96 12 116 12 229 1z
m5761 -29 c82 -23 223 -86 261 -118 l22 -18 -52 -157 -51 -156 -62 37 c-98 60
-210 93 -333 99 -63 2 -129 0 -163 -8 -148 -30 -293 -143 -361 -281 -50 -104
-66 -175 -66 -299 0 -62 6 -131 15 -165 54 -211 202 -362 403 -410 148 -36
347 -2 510 86 l72 40 9 -23 c4 -13 28 -83 52 -155 51 -155 59 -136 -86 -207
-139 -69 -239 -90 -425 -90 -169 -1 -246 12 -366 60 -119 47 -204 103 -300
199 -139 138 -215 286 -250 488 -22 126 -15 333 16 436 64 221 193 400 378
521 107 70 221 112 392 144 14 2 88 3 165 1 105 -2 160 -8 220 -24z m945 -412
l0 -411 296 411 296 411 199 0 c110 0 199 -2 199 -5 0 -3 -144 -197 -319 -431
l-320 -425 326 -457 c179 -251 328 -462 330 -469 4 -10 -39 -13 -199 -13
l-203 0 -300 434 -300 434 -3 -434 -2 -434 -180 0 -180 0 0 900 0 900 180 0
180 0 0 -411z m-4130 -1305 c0 -8 -19 -13 -24 -6 -3 5 1 9 9 9 8 0 15 -2 15
-3z m185 -15 c-4 -5 -1 -9 4 -9 6 0 11 -5 11 -12 0 -9 -3 -9 -12 0 -14 14 -20
44 -7 36 5 -3 7 -10 4 -15z m-1768 -235 c0 -7 -5 -12 -11 -11 -6 1 -10 -3 -9
-9 1 -6 -4 -11 -11 -11 -14 0 -16 14 -4 33 10 15 35 13 35 -2z m1063 -110 c0
-8 -19 -13 -24 -6 -3 5 1 9 9 9 8 0 15 -2 15 -3z m-60 -20 c0 -8 -19 -13 -24
-6 -3 5 1 9 9 9 8 0 15 -2 15 -3z m-564 -150 c2 -11 -1 -12 -10 -5 -7 6 -15 8
-18 5 -3 -3 -9 0 -14 7 -4 7 -3 10 4 5 6 -3 14 -1 17 5 8 12 18 5 21 -17z
m-1742 -69 c96 -25 167 -65 236 -135 56 -55 140 -183 128 -195 -1 -2 -25 -12
-53 -23 -27 -11 -67 -27 -87 -36 l-36 -16 -25 43 c-33 55 -114 131 -163 152
-92 39 -232 37 -313 -5 -50 -25 -105 -89 -119 -139 -18 -58 -14 -150 7 -196
40 -87 120 -146 345 -255 268 -130 367 -208 427 -335 135 -285 -20 -609 -331
-690 -86 -23 -244 -23 -330 -1 -153 39 -279 135 -353 267 -61 110 -62 109 37
152 47 20 87 37 90 37 3 0 19 -27 36 -60 42 -84 91 -135 164 -170 115 -56 263
-58 372 -5 102 50 150 142 142 269 -6 82 -28 133 -85 190 -55 56 -121 96 -307
187 -90 44 -196 102 -235 130 -122 86 -194 206 -207 347 -21 229 126 431 354
486 78 19 234 20 306 1z m7221 -14 c232 -61 435 -217 555 -426 152 -266 161
-633 24 -908 -164 -327 -490 -513 -867 -494 -139 7 -245 33 -364 92 -249 123
-418 344 -478 625 -112 532 206 1027 724 1125 106 20 301 13 406 -14z m1654
-1 c77 -26 152 -73 206 -128 40 -42 115 -156 115 -176 0 -6 -37 -26 -82 -44
-79 -33 -83 -33 -95 -15 -81 116 -138 162 -231 189 -70 21 -181 14 -245 -14
-63 -28 -120 -90 -140 -153 -36 -111 -12 -196 78 -285 55 -54 89 -75 250 -155
218 -107 312 -166 378 -238 92 -99 136 -245 116 -386 -37 -262 -247 -425 -546
-425 -245 1 -427 115 -528 332 -13 29 -21 56 -17 60 4 4 43 23 87 42 l80 35
29 -60 c39 -79 126 -160 202 -189 31 -11 92 -24 135 -27 228 -17 380 133 347
344 -21 134 -91 199 -359 333 -109 54 -224 116 -257 138 -124 85 -195 194
-212 326 -32 250 122 460 375 513 86 18 235 10 314 -17z m-7109 -100 l0 -100
-240 0 -240 0 0 -800 0 -800 -107 0 -108 0 3 800 4 800 -246 0 -246 0 0 100 0
100 590 0 590 0 0 -100z m2600 90 c370 -39 629 -213 743 -501 100 -251 92
-605 -18 -835 -106 -221 -302 -364 -582 -425 -82 -18 -143 -22 -380 -26 l-283
-5 0 894 c0 492 3 898 7 901 10 11 406 8 513 -3z m1360 -890 l0 -900 -100 0
-100 0 0 900 0 900 100 0 100 0 0 -900z m-3955 401 c-3 -5 -1 -12 5 -16 6 -4
8 -10 5 -15 -3 -5 0 -12 6 -16 8 -4 9 -3 5 4 -4 7 -2 12 3 12 6 0 11 -7 11
-16 0 -8 5 -12 10 -9 6 3 10 -2 10 -13 0 -10 3 -22 7 -26 10 -9 11 -616 1
-610 -5 3 -3 -26 2 -33 2 -2 3 -15 4 -30 1 -16 5 -33 9 -40 4 -6 3 -15 -3 -18
-8 -5 -7 -11 1 -21 6 -8 8 -14 4 -14 -4 0 -3 -6 3 -13 6 -7 12 -36 14 -64 2
-28 6 -49 11 -46 4 2 7 -5 7 -16 0 -12 4 -21 9 -21 6 0 8 9 6 20 -2 11 0 18 5
15 9 -6 8 -24 -3 -42 -4 -6 -2 -15 4 -19 8 -5 9 -3 4 7 -8 12 -6 12 8 0 17
-13 14 -36 -4 -26 -15 10 -10 -2 8 -16 14 -12 16 -12 8 0 -5 9 -4 12 3 8 12
-8 11 -25 -2 -46 -5 -8 -5 -12 0 -9 5 3 18 -4 29 -15 11 -11 13 -16 5 -12 -12
7 -13 6 -3 -7 7 -8 9 -18 5 -22 -4 -4 -2 -6 3 -4 6 2 10 -1 10 -7 0 -5 -3 -9
-7 -8 -13 5 -9 -4 9 -18 11 -10 14 -10 9 -1 -4 6 -2 12 3 12 6 0 11 -5 11 -11
0 -5 5 -7 10 -4 6 4 9 1 8 -7 -2 -7 2 -12 8 -11 6 1 11 -4 11 -12 0 -8 -5 -11
-11 -8 -6 4 -3 -3 7 -14 9 -11 14 -23 10 -28 -5 -4 -3 -5 4 -1 6 3 14 2 18 -4
4 -6 10 -8 15 -5 4 3 14 -3 21 -13 13 -15 12 -16 -3 -3 -10 7 -18 10 -18 5 1
-5 21 -22 45 -37 25 -16 43 -33 39 -38 -3 -5 0 -8 8 -7 7 2 12 -4 10 -12 -2
-8 0 -12 4 -8 4 4 13 3 20 -3 8 -7 14 -6 20 2 5 8 3 9 -6 4 -9 -6 -11 -4 -5 4
5 9 13 7 29 -8 12 -12 27 -18 31 -14 5 5 4 1 -3 -9 -8 -10 -9 -19 -3 -22 5 -4
12 -2 16 4 4 6 17 5 35 -5 17 -9 33 -16 37 -18 5 -1 7 -5 6 -9 -1 -3 5 -5 15
-3 9 1 26 -5 36 -14 16 -13 18 -13 11 -1 -7 12 -6 13 7 3 8 -7 18 -10 21 -6 4
3 7 1 7 -6 0 -19 -107 -127 -180 -180 -87 -65 -172 -106 -283 -138 l-92 -26
-443 -4 c-244 -3 -451 -2 -459 1 -10 4 -12 10 -6 19 8 10 10 71 3 80 -1 1 -3
9 -5 19 -2 13 2 15 26 8 37 -11 50 -20 45 -29 -3 -4 1 -8 9 -8 10 0 12 4 5 12
-8 9 -3 14 20 17 16 2 33 1 38 -4 5 -5 9 -2 9 6 0 8 -8 13 -16 11 -13 -2 -17
6 -17 39 0 40 2 42 32 41 17 0 39 -6 48 -14 13 -11 16 -11 14 -2 -2 8 8 15 22
17 13 3 29 9 34 14 4 4 15 6 22 3 30 -11 50 24 31 55 -9 13 31 34 47 24 5 -3
6 0 2 6 -3 6 -2 13 4 17 5 3 10 0 10 -8 0 -7 6 -14 14 -14 15 0 16 14 2 36 -6
9 -5 12 1 8 6 -4 21 5 34 20 13 14 17 22 9 18 -13 -8 -13 -7 -1 8 7 9 11 17 8
17 -4 0 5 16 18 36 14 20 25 41 25 45 0 5 5 9 11 9 5 0 7 -6 3 -12 -4 -8 -3
-10 2 -5 5 5 10 13 10 18 1 5 2 10 4 12 1 1 3 10 5 20 2 11 -1 15 -8 10 -7 -4
-6 1 2 10 7 9 11 17 8 17 -3 0 -1 15 4 33 6 17 13 43 16 57 3 14 6 228 8 475
2 248 6 457 9 465 4 8 7 31 9 50 2 19 6 40 10 47 4 6 3 15 -3 18 -8 5 -8 11
-1 19 6 7 9 15 6 18 -3 2 20 30 50 61 53 55 75 71 59 45 -6 -10 -4 -10 7 -2
19 14 38 12 50 -6 9 -13 10 -13 6 2 -3 9 -3 19 0 22 10 9 15 7 8 -3z m-245
-1347 c0 -8 -19 -13 -24 -6 -3 5 1 9 9 9 8 0 15 -2 15 -3z m-223 -248 c0 -8
-3 -14 -6 -13 -3 1 -7 -2 -7 -8 -1 -5 3 -8 10 -7 6 2 7 0 3 -5 -5 -4 -13 -9
-18 -9 -5 -1 -10 -2 -11 -4 -2 -1 -11 -3 -21 -5 -18 -3 -18 -3 0 17 10 11 17
23 16 27 -2 3 1 6 6 6 5 0 13 3 17 8 10 10 11 9 11 -7z m-201 -68 c5 4 0 -3
-10 -15 -18 -21 -15 -28 8 -24 5 1 4 -4 -2 -12 -7 -8 -10 -16 -7 -19 3 -3 -1
-11 -9 -17 -10 -8 -16 -9 -21 -1 -4 6 -2 9 3 8 6 -2 10 2 10 7 0 6 -3 9 -7 8
-4 -1 -7 9 -7 22 0 13 2 23 6 22 3 -1 5 3 5 8 0 6 -4 9 -8 7 -5 -1 -6 2 -2 8
5 8 11 8 19 1 7 -6 17 -7 22 -3z m-126 -73 c9 -6 6 -47 -4 -64 -6 -10 -5 -12
2 -7 7 4 12 1 12 -9 0 -10 -5 -13 -12 -9 -7 5 -8 3 -2 -7 21 -34 0 -64 -30
-40 -7 6 -16 8 -19 4 -4 -3 -7 -4 -7 -1 0 3 8 12 17 19 10 8 14 9 10 2 -4 -6
-4 -14 1 -16 4 -3 7 23 7 58 0 52 -2 62 -16 60 -8 -2 -16 3 -16 10 0 12 38 12
57 0z m-33 -38 c0 -8 -6 -14 -14 -14 -9 0 -10 4 -2 14 6 7 12 13 14 13 1 0 2
-6 2 -13z m0 -40 c0 -8 -6 -14 -14 -14 -9 0 -10 4 -2 14 6 7 12 13 14 13 1 0
2 -6 2 -13z"/>
<path d="M5483 10595 c0 -6 6 -12 12 -12 6 0 12 6 12 12 0 6 -6 12 -12 12 -6
0 -12 -6 -12 -12z"/>
<path d="M5484 10547 c0 -13 5 -24 12 -24 14 0 12 23 -2 37 -7 7 -10 2 -10
-13z"/>
<path d="M5483 10497 c0 -8 6 -14 14 -14 9 0 10 4 2 14 -6 7 -12 13 -14 13 -1
0 -2 -6 -2 -13z"/>
<path d="M5483 10455 c0 -6 6 -12 12 -12 6 0 12 6 12 12 0 6 -6 12 -12 12 -6
0 -12 -6 -12 -12z"/>
<path d="M5483 10417 c0 -8 6 -14 14 -14 9 0 10 4 2 14 -6 7 -12 13 -14 13 -1
0 -2 -6 -2 -13z"/>
<path d="M5483 10375 c0 -6 6 -12 12 -12 6 0 12 6 12 12 0 6 -6 12 -12 12 -6
0 -12 -6 -12 -12z"/>
<path d="M5483 10337 c0 -8 6 -14 14 -14 9 0 10 4 2 14 -6 7 -12 13 -14 13 -1
0 -2 -6 -2 -13z"/>
<path d="M5483 10295 c0 -6 6 -12 12 -12 6 0 12 6 12 12 0 6 -6 12 -12 12 -6
0 -12 -6 -12 -12z"/>
<path d="M5483 10257 c0 -8 6 -14 14 -14 9 0 10 4 2 14 -6 7 -12 13 -14 13 -1
0 -2 -6 -2 -13z"/>
<path d="M5483 10215 c0 -6 6 -12 12 -12 6 0 12 6 12 12 0 6 -6 12 -12 12 -6
0 -12 -6 -12 -12z"/>
<path d="M5807 10193 c-12 -11 -8 -30 7 -30 7 0 13 6 12 13 -3 18 -11 25 -19
17z"/>
<path d="M5483 10177 c0 -8 6 -14 14 -14 9 0 10 4 2 14 -6 7 -12 13 -14 13 -1
0 -2 -6 -2 -13z"/>
<path d="M5600 10185 c0 -2 6 -8 13 -14 10 -8 14 -7 14 2 0 8 -6 14 -14 14 -7
0 -13 -1 -13 -2z"/>
<path d="M5483 10135 c0 -6 6 -12 12 -12 6 0 12 6 12 12 0 6 -6 12 -12 12 -6
0 -12 -6 -12 -12z"/>
<path d="M5600 10145 c0 -2 6 -8 13 -14 10 -8 14 -7 14 2 0 8 -6 14 -14 14 -7
0 -13 -1 -13 -2z"/>
<path d="M5600 10105 c0 -2 6 -8 13 -14 10 -8 14 -7 14 2 0 8 -6 14 -14 14 -7
0 -13 -1 -13 -2z"/>
<path d="M5543 10035 c0 -6 6 -12 12 -12 6 0 12 6 12 12 0 6 -6 12 -12 12 -6
0 -12 -6 -12 -12z"/>
<path d="M5483 10015 c0 -8 4 -12 9 -9 5 3 6 10 3 15 -9 13 -12 11 -12 -6z"/>
<path d="M5543 9995 c0 -6 6 -12 12 -12 6 0 12 6 12 12 0 6 -6 12 -12 12 -6 0
-12 -6 -12 -12z"/>
<path d="M8306 9539 c-14 -46 -59 -187 -100 -314 l-74 -230 200 -3 c111 -1
203 0 206 2 5 6 -187 607 -199 620 -4 4 -19 -29 -33 -75z"/>
<path d="M6443 8895 c0 -8 4 -12 9 -9 5 3 6 10 3 15 -9 13 -12 11 -12 -6z"/>
<path d="M7610 8860 c-8 -5 -12 -12 -9 -15 4 -3 12 1 19 10 14 17 11 19 -10 5z"/>
<path d="M7400 8337 c0 -8 7 -14 15 -14 11 0 12 4 4 14 -6 7 -13 13 -15 13 -2
0 -4 -6 -4 -13z"/>
<path d="M5802 8053 c4 -18 21 -18 24 0 1 8 -5 14 -13 14 -7 0 -13 -7 -11 -14z"/>
<path d="M5925 7911 c2 -19 18 -17 21 2 1 8 -4 14 -11 14 -7 0 -12 -7 -10 -16z"/>
<path d="M5966 7918 c3 -4 11 -8 19 -8 7 0 28 -15 46 -32 18 -18 30 -28 26
-22 -8 14 16 37 28 26 5 -4 5 -2 2 5 -4 6 -1 14 5 17 7 3 4 4 -7 3 -11 -1 -19
3 -18 8 0 6 -23 10 -52 11 -30 0 -52 -3 -49 -8z m99 -17 c3 -5 2 -12 -3 -15
-5 -3 -9 1 -9 9 0 17 3 19 12 6z"/>
<path d="M6115 7920 c-3 -5 2 -10 12 -11 14 0 14 -2 -4 -9 -13 -5 -23 -12 -23
-15 0 -4 5 -3 10 0 6 3 10 -1 10 -10 0 -10 -5 -14 -12 -9 -10 5 -10 4 -1 -6
17 -19 41 -21 39 -4 -1 7 -5 17 -9 20 -4 4 -2 13 3 19 7 9 6 16 -4 24 -10 8
-16 9 -21 1z"/>
<path d="M6505 7700 c-16 -7 -17 -9 -3 -9 9 -1 20 4 23 9 7 11 7 11 -20 0z"/>
<path d="M7613 7630 c-6 -15 -122 -347 -257 -740 -136 -393 -249 -716 -252
-719 -10 -10 -29 -7 -43 7 -9 9 -17 10 -26 2 -9 -8 -15 -8 -20 0 -3 5 -3 10 1
10 5 0 -10 19 -31 41 -22 23 -33 38 -25 34 8 -5 4 4 -9 18 -27 30 -42 37 -20
10 8 -10 9 -14 2 -10 -18 11 -43 66 -32 73 5 3 6 11 2 17 -4 7 -9 23 -11 37
-2 13 -7 27 -11 30 -5 3 -9 160 -11 350 -2 378 -5 457 -16 516 -4 21 -8 50
-10 64 -1 14 -3 26 -4 28 -1 1 -3 8 -4 15 -1 6 -8 11 -16 9 -11 -3 -11 -1 0
13 12 14 11 18 -1 26 -8 5 -10 9 -4 9 5 0 -9 19 -30 41 -22 23 -34 39 -27 35
6 -4 12 -3 12 1 0 10 -42 38 -53 35 -5 -1 -5 3 -1 10 14 21 13 35 -2 35 -12 0
-14 -92 -11 -601 4 -644 3 -640 57 -750 71 -147 254 -239 445 -223 205 18 336
117 396 302 22 69 23 80 27 620 2 303 2 579 0 615 -3 58 -4 62 -15 40z"/>
<path d="M6775 7541 c-3 -5 -2 -12 3 -15 5 -3 9 1 9 9 0 17 -3 19 -12 6z"/>
<path d="M5676 10088 c3 -5 10 -6 15 -3 13 9 11 12 -6 12 -8 0 -12 -4 -9 -9z"/>
<path d="M4488 9694 c-92 -22 -176 -70 -249 -143 -262 -262 -208 -763 102
-944 144 -84 329 -98 495 -36 l57 21 -84 78 c-79 73 -83 79 -68 96 48 59 194
219 201 222 4 2 44 -31 88 -73 44 -42 84 -74 88 -71 5 3 20 40 33 83 34 113
33 284 -4 398 -63 190 -206 327 -389 370 -77 18 -194 18 -270 -1z"/>
<path d="M11202 7495 c-101 -30 -138 -49 -219 -108 -116 -86 -204 -216 -255
-377 -20 -65 -23 -95 -22 -225 0 -142 2 -155 32 -244 54 -158 132 -266 257
-358 210 -156 525 -171 754 -36 160 95 269 240 323 430 32 112 31 305 -1 418
-68 242 -230 421 -444 491 -68 22 -104 28 -212 31 -116 3 -139 0 -213 -22z"/>
<path d="M8470 6789 l0 -711 188 5 c212 5 261 15 389 78 152 74 261 214 310
399 25 92 25 359 0 450 -41 151 -116 268 -226 350 -133 100 -282 140 -522 140
l-139 0 0 -711z"/>
<path d="M6053 7118 c-13 -22 -13 -42 0 -29 10 10 19 41 12 41 -2 0 -7 -6 -12
-12z"/>
<path d="M5800 5592 c0 -12 3 -12 15 -2 8 7 15 13 15 15 0 1 -7 2 -15 2 -8 0
-15 -7 -15 -15z"/>
<path d="M5543 5495 c0 -6 6 -12 12 -12 6 0 12 6 12 12 0 6 -6 12 -12 12 -6 0
-12 -6 -12 -12z"/>
<path d="M5608 5476 c4 -6 7 -14 7 -18 0 -19 11 -14 11 6 0 12 -6 23 -13 23
-6 0 -9 -5 -5 -11z"/>
<path d="M5483 5375 c0 -6 6 -12 12 -12 6 0 12 6 12 12 0 6 -6 12 -12 12 -6 0
-12 -6 -12 -12z"/>
<path d="M5483 5337 c0 -8 6 -14 14 -14 9 0 10 4 2 14 -6 7 -12 13 -14 13 -1
0 -2 -6 -2 -13z"/>
</g>
</svg>
